<?xml version="1.0" encoding="utf-8"?>
<!-- Generator: Adobe Illustrator 19.1.0, SVG Export Plug-In . SVG Version: 6.00 Build 0)  -->
<svg version="1.1" id="Blue" xmlns="http://www.w3.org/2000/svg" xmlns:xlink="http://www.w3.org/1999/xlink" x="0px" y="0px"
	 viewBox="0 0 36 36" style="enable-background:new 0 0 36 36;" xml:space="preserve">
<style type="text/css">
	.st0{fill:#E3E3E3;}
</style>
<path class="st0" d="M34,0H2C0.9,0,0,0.9,0,2v32c0,1.1,0.9,2,2,2h17.2V22.1h-4.7v-5.4h4.7v-4c0-4.6,2.8-7.2,7-7.2
	c2,0,3.7,0.1,4.2,0.2v4.9l-2.9,0c-2.3,0-2.7,1.1-2.7,2.6v3.5h5.4l-0.7,5.4h-4.7V36H34c1.1,0,2-0.9,2-2V2C36,0.9,35.1,0,34,0z"/>
</svg>
