<?xml version="1.0" encoding="utf-8"?>
<!-- Generator: Adobe Illustrator 19.1.0, SVG Export Plug-In . SVG Version: 6.00 Build 0)  -->
<svg version="1.1" id="Blue" xmlns="http://www.w3.org/2000/svg" xmlns:xlink="http://www.w3.org/1999/xlink" x="0px" y="0px"
	 viewBox="0 0 36 36" style="enable-background:new 0 0 36 36;" xml:space="preserve">
<style type="text/css">
	.st0{fill:#E3E3E3;}
</style>
<path class="st0" d="M33.3,0H2.7C1.2,0,0,1.2,0,2.6v30.8C0,34.8,1.2,36,2.7,36h30.7c1.5,0,2.7-1.2,2.7-2.6V2.6C36,1.2,34.8,0,33.3,0
	z M10.7,30.7H5.3V13.5h5.3V30.7z M8,11.2c-1.7,0-3.1-1.4-3.1-3.1S6.3,5,8,5c1.7,0,3.1,1.4,3.1,3.1S9.7,11.2,8,11.2z M30.7,30.7h-5.3
	v-8.4c0-2,0-4.6-2.8-4.6c-2.8,0-3.2,2.2-3.2,4.4v8.5H14V13.5h5.1v2.3h0.1c0.7-1.4,2.5-2.8,5.1-2.8c5.4,0,6.4,3.6,6.4,8.2V30.7z"/>
</svg>
