<?xml version="1.0" encoding="utf-8"?>
<!-- Generator: Adobe Illustrator 19.1.0, SVG Export Plug-In . SVG Version: 6.00 Build 0)  -->
<svg version="1.1" id="Layer_1" xmlns="http://www.w3.org/2000/svg" xmlns:xlink="http://www.w3.org/1999/xlink" x="0px" y="0px"
	 viewBox="0 0 120 120" style="enable-background:new 0 0 120 120;" xml:space="preserve">
<style type="text/css">
	.st0{fill:none;stroke:#008AFF;stroke-width:3;stroke-linejoin:round;stroke-miterlimit:10;}
	.st1{fill:#008AFF;}
</style>
<path class="st0" d="M84.7,111.3H36.4c-2.9,0-5.3-2.4-5.3-5.3V10.9c0-2.9,2.4-5.3,5.3-5.3h48.2c2.9,0,5.3,2.4,5.3,5.3v95.1
	C89.9,109,87.6,111.3,84.7,111.3z"/>
<circle class="st1" cx="60.6" cy="102.3" r="4.3"/>
<line class="st0" x1="31" y1="93.5" x2="90" y2="93.5"/>
<g>
	<path class="st1" d="M58.5,76.3v-6c-5.2-0.6-9.9-2.6-14.2-6l3.9-5.5c3.6,2.9,7.1,4.7,10.6,5.2V52.2c-4.5-1.2-7.8-2.7-9.8-4.6
		c-2-1.9-3.1-4.5-3.1-7.8v-0.1c0-3.2,1.2-5.8,3.5-7.9c2.3-2.1,5.4-3.3,9.2-3.6v-3.5h5.2v3.6c4.1,0.5,7.9,2,11.3,4.6l-3.4,5.7
		c-2.6-2-5.3-3.2-8.2-3.9v11.4c4.6,1.2,7.9,2.7,10,4.7c2.1,1.9,3.1,4.5,3.1,7.7v0.1c0,3.2-1.2,5.9-3.5,8c-2.3,2.1-5.4,3.3-9.3,3.6v6
		H58.5z M58.8,45V34.4c-1.8,0.2-3.3,0.7-4.3,1.6c-1,0.9-1.5,2-1.5,3.4v0.1c0,1.3,0.4,2.4,1.2,3.2C55.1,43.6,56.6,44.3,58.8,45z
		 M63.5,64.3c1.9-0.2,3.3-0.7,4.4-1.6c1-0.9,1.6-2.1,1.6-3.5V59c0-1.4-0.4-2.5-1.3-3.3c-0.9-0.9-2.4-1.6-4.7-2.3V64.3z"/>
</g>
</svg>
