<?xml version="1.0" encoding="utf-8"?>
<!-- Generator: Adobe Illustrator 19.1.0, SVG Export Plug-In . SVG Version: 6.00 Build 0)  -->
<svg version="1.1" id="Layer_1" xmlns="http://www.w3.org/2000/svg" xmlns:xlink="http://www.w3.org/1999/xlink" x="0px" y="0px"
	 viewBox="0 0 120 120" style="enable-background:new 0 0 120 120;" xml:space="preserve">
<style type="text/css">
	.st0{fill:none;stroke:#008AFF;stroke-width:3;stroke-linejoin:round;stroke-miterlimit:10;}
	.st1{fill:#008AFF;}
</style>
<g>
	<g>
		<path class="st1" d="M60.3,24c6.2,0,15.4,0.5,15.4,0.5c6.8,0.2,9.8,1.9,10.5,2.9c0.7,1,2.7,4.5,4.2,7.9c1.5,3.4,3.2,10.3,4.6,10.3
			c1.4,0,1.2-2.8,1.2-2.8c0-0.7,1.1-2.7,4.2-2.7c3.2,0,4.8,2.4,4.8,3.2c0,0.8-1.4,3.6-3.9,3.6c-2.5,0-2.9,0-2.9,0s-0.3,0.9,0,2
			c0.3,1.1,5.3,7,5.3,11c0,1.9,0,30.2,0,31.5c0,1.4-1.9,2-5.2,2c-3.2,0-5.2-0.4-5.7-1.5c-0.5-1.1-0.4-2.5-0.4-2.5s-24.3,0-31.8,0
			c-0.1,0-0.3,0-0.4-0.1c-0.1,0-0.3,0.1-0.4,0.1c-7.5,0-31.8,0-31.8,0s0.1,1.4-0.4,2.5c-0.5,1.1-2.5,1.5-5.7,1.5
			c-3.2,0-5.2-0.6-5.2-2c0-1.4,0-29.7,0-31.5c0-4.2,5-9.9,5.3-11c0.3-1.1,0-2,0-2s-0.5,0-2.9,0c-2.5,0-3.9-2.7-3.9-3.6
			c0-0.8,1.6-3.2,4.8-3.2c3.2,0,4.2,2,4.2,2.7c0,0-0.2,2.8,1.2,2.8c1.4,0,3.1-6.9,4.6-10.3c1.5-3.4,3.5-6.9,4.2-7.9
			c0.7-1,3.8-2.7,10.5-2.9L60.3,24 M60.3,21c0,0-0.1,0-0.1,0l-15.5,0.5c-6.3,0.2-11,1.7-12.8,4.2c-0.9,1.3-3,5-4.5,8.5
			c-0.6,1.3-1.1,2.9-1.7,4.5c-0.1,0.2-0.1,0.4-0.2,0.6c0,0-0.1-0.1-0.1-0.1c-0.9-0.8-2.6-1.8-5.3-1.8c-4.7,0-7.8,3.7-7.8,6.2
			c0,2.1,2.1,5.8,5.7,6.4c-1.8,2.7-4.2,6.5-4.2,10.1v31.5c0,2.3,1.4,5,8.2,5c3.6,0,7.2-0.4,8.4-3.3c0.1-0.2,0.2-0.5,0.3-0.7h29.2
			c0.1,0,0.3,0,0.4,0c0.1,0,0.3,0,0.4,0h29.2c0.1,0.2,0.2,0.4,0.2,0.7c1.3,2.9,4.8,3.3,8.5,3.3c6.7,0,8.2-2.7,8.2-5V60.1
			c0-3.5-2.4-7.4-4.2-10.1c3.6-0.7,5.8-4.4,5.8-6.4c0-2.5-3-6.2-7.8-6.2c-2.4,0-4.2,0.8-5.4,2c-0.1-0.2-0.2-0.4-0.2-0.6
			c-0.5-1.6-1.1-3.2-1.7-4.5c-1.6-3.5-3.6-7.2-4.5-8.4c-1.8-2.5-6.5-4-12.8-4.2C75.1,21.5,66.4,21,60.3,21L60.3,21z"/>
	</g>
	<path class="st0" d="M28,83c-1.7,0-3.1-1.4-3.1-3.1c0-1.7,1.4-3.1,3.1-3.1c1.7,0,3.1,1.4,3.1,3.1S29.7,83,28,83z"/>
	<path class="st0" d="M34.2,58.9c-1.5,2.8-4.7,4-7.2,2.7c-2.5-1.3-3.3-4.7-1.8-7.5c1.5-2.8,4.7-4,7.2-2.7
		C34.9,52.8,35.7,56.1,34.2,58.9z"/>
	<rect x="44" y="73.4" class="st0" width="32.5" height="6.5"/>
	<path class="st0" d="M92.6,83c-1.7,0-3.1-1.4-3.1-3.1c0-1.7,1.4-3.1,3.1-3.1c1.7,0,3.1,1.4,3.1,3.1C95.6,81.6,94.3,83,92.6,83z"/>
	<path class="st0" d="M93.1,61.6c-2.5,1.3-5.7,0.1-7.2-2.7c-1.5-2.8-0.7-6.2,1.8-7.5c2.5-1.3,5.7-0.2,7.2,2.7
		C96.4,56.9,95.6,60.2,93.1,61.6z"/>
</g>
</svg>
