<?xml version="1.0" encoding="utf-8"?>
<!-- Generator: Adobe Illustrator 19.1.0, SVG Export Plug-In . SVG Version: 6.00 Build 0)  -->
<svg version="1.1" id="Layer_1" xmlns="http://www.w3.org/2000/svg" xmlns:xlink="http://www.w3.org/1999/xlink" x="0px" y="0px"
	 viewBox="0 0 120 120" style="enable-background:new 0 0 120 120;" xml:space="preserve">
<style type="text/css">
	.st0{fill:none;stroke:#008AFF;stroke-width:3;stroke-linejoin:round;stroke-miterlimit:10;}
	.st1{fill:#008AFF;}
</style>
<g>
	<path class="st0" d="M56.6,51.1l-41-9.7c-7-1.6-11.3-8.7-9.7-15.7l1.4-5.8c1.6-7,8.7-11.3,15.7-9.7l41,9.7c7,1.6,11.3,8.7,9.7,15.7
		l-1.4,5.8C70.6,48.4,63.6,52.7,56.6,51.1z"/>
	<circle class="st0" cx="80" cy="56.7" r="4.1"/>
	<circle class="st0" cx="64.7" cy="37.6" r="4.1"/>
	<polygon class="st0" points="113.5,113.3 105.1,111.7 103.9,103.4 96.9,99.9 95.5,91.3 87.4,86.3 82.6,79.4 92.4,72.6 114.7,104.6 
			"/>
	<path class="st0" d="M68.7,78.6l-4.3-6.2c-4.4-6.3-2.8-14.9,3.4-19.2l5.2-3.6c6.3-4.4,14.9-2.8,19.2,3.4l4.3,6.2
		c2.7,3.9,1.7,9.2-2.1,11.9l-13.8,9.6C76.8,83.5,71.4,82.5,68.7,78.6z"/>
	<path class="st0" d="M64.4,52.1c0.5,0.8,1.2,1.6,1.9,2.2"/>
	<path class="st0" d="M86.6,47c0.9-6.2-3.1-12.2-9.3-13.6c-1-0.2-2.1-0.3-3.1-0.3"/>
	<path class="st0" d="M64.4,52.1c-1.8-2.7-2.5-6.1-1.7-9.6c0.8-3.2,2.7-5.8,5.3-7.5"/>
	<path class="st0" d="M66.3,54.3c1.5,1.4,3.3,2.4,5.4,2.9c4.2,1,8.3-0.3,11.2-3.1"/>
	<circle class="st0" cx="80" cy="56.7" r="4.1"/>
</g>
</svg>
