<?xml version="1.0" encoding="utf-8"?>
<!-- Generator: Adobe Illustrator 19.1.0, SVG Export Plug-In . SVG Version: 6.00 Build 0)  -->
<svg version="1.1" id="Layer_1" xmlns="http://www.w3.org/2000/svg" xmlns:xlink="http://www.w3.org/1999/xlink" x="0px" y="0px"
	 viewBox="0 0 120 120" style="enable-background:new 0 0 120 120;" xml:space="preserve">
<style type="text/css">
	.st0{fill:none;stroke:#008AFF;stroke-width:3;stroke-linejoin:round;stroke-miterlimit:10;}
	.st1{fill:#008AFF;}
</style>
<g>
	<path class="st1" d="M33.2,61.1c4.2,0,7.8-3.5,7.8-7.8v-3.7c0-4.2-3.5-7.8-7.8-7.8s-7.8,3.5-7.8,7.8v3.7
		C25.5,57.6,29,61.1,33.2,61.1z M28.2,49.7c0-2.8,2.2-5,5-5s5,2.2,5,5v3.7c0,2.8-2.2,5-5,5s-5-2.2-5-5V49.7z"/>
	<path class="st1" d="M36.4,63h-5.7l-12.7,3.1l-1.7,5.5l0.7,0.6c4.6,3.7,10.3,5.5,16.3,5.5s11.6-1.8,16.3-5.5l0.7-0.6L48,66.1
		L36.4,63z M33.2,75.1c-5,0-9.8-1.5-13.9-4.4l0.7-2.2l10.5-2.8h5l10.2,2.8l0.9,2.4C43,73.7,38.2,75.1,33.2,75.1z"/>
	<path class="st1" d="M106.7,23.2H14c-5,0-9.2,3.5-9.2,7.8v58c0,4.2,4.1,7.8,9.2,7.8h92.6c5,0,9.2-3.5,9.2-7.8V31
		C115.8,26.7,111.7,23.2,106.7,23.2z M113.2,89c0,2.8-3,5.2-6.5,5.2H14c-3.5,0-6.5-2.2-6.5-5.2V31c0-2.8,3-5.2,6.5-5.2h92.6
		c3.5,0,6.5,2.2,6.5,5.2v58H113.2z"/>
	<rect x="58.9" y="25.8" class="st1" width="2.8" height="68.2"/>
	<rect x="71.6" y="58.5" class="st1" width="31.8" height="2.8"/>
	<rect x="71.6" y="50.2" class="st1" width="31.8" height="2.8"/>
	<rect x="71.6" y="67" class="st1" width="31.8" height="2.8"/>
</g>
</svg>
