<?xml version="1.0" encoding="utf-8"?>
<!-- Generator: Adobe Illustrator 19.1.0, SVG Export Plug-In . SVG Version: 6.00 Build 0)  -->
<svg version="1.1" id="Blue" xmlns="http://www.w3.org/2000/svg" xmlns:xlink="http://www.w3.org/1999/xlink" x="0px" y="0px"
	 viewBox="0 0 36 36" style="enable-background:new 0 0 36 36;" xml:space="preserve">
<style type="text/css">
	.st0{fill:#E3E3E3;}
</style>
<g>
	<path class="st0" d="M33.8,0H2.2C1,0,0,1,0,2.2v31.7C0,35,1,36,2.2,36h31.7c1.2,0,2.2-1,2.2-2.2V2.2C36,1,35,0,33.8,0z M30.3,11.7
		c0,0.3,0,0.5,0,0.8c0,8.4-6.4,18-18,18c-3.6,0-6.9-1-9.7-2.8c0.5,0.1,1,0.1,1.5,0.1c3,0,5.7-1,7.9-2.7C9.2,25,6.8,23.2,6,20.7
		c0.4,0.1,0.8,0.1,1.2,0.1c0.6,0,1.1-0.1,1.7-0.2C6,20,3.8,17.4,3.8,14.4c0,0,0-0.1,0-0.1c0.9,0.5,1.8,0.8,2.9,0.8
		C5,13.9,3.9,12,3.9,9.8c0-1.2,0.3-2.2,0.9-3.2c3.1,3.8,7.8,6.4,13.1,6.6c-0.1-0.5-0.2-0.9-0.2-1.4c0-3.5,2.8-6.3,6.3-6.3
		c1.8,0,3.5,0.8,4.6,2c1.4-0.3,2.8-0.8,4-1.5c-0.5,1.5-1.5,2.7-2.8,3.5c1.3-0.2,2.5-0.5,3.6-1C32.6,9.7,31.5,10.8,30.3,11.7z"/>
</g>
</svg>
